<?xml version="1.0" encoding="utf-8"?><svg version="1.1" id="Layer_1" xmlns="http://www.w3.org/2000/svg" xmlns:xlink="http://www.w3.org/1999/xlink" x="0px" y="0px" viewBox="0 0 122.88 122.88" style="enable-background:new 0 0 122.88 122.88" xml:space="preserve"><g><path d="M5.68,0h27.88c1.56,0,2.98,0.64,4.01,1.67c1.03,1.03,1.67,2.45,1.67,4.01v77.36h77.97c1.56,0,2.98,0.64,4.01,1.67 c1.03,1.03,1.67,2.45,1.67,4.01v28.49c0,1.56-0.64,2.97-1.67,4l0,0l0,0c-1.03,1.03-2.45,1.67-4.01,1.67H82.94H69.68H56.43H42.78 H29.3H15.87H5.68c-1.56,0-2.98-0.64-4.01-1.67C0.64,120.19,0,118.77,0,117.2V75.93V63.31V50.53V38.05V25.12V12.48v-6.8 c0-1.56,0.64-2.98,1.67-4.01C2.69,0.64,4.11,0,5.68,0L5.68,0z M101.56,94.51c4.32,0,7.82,3.5,7.82,7.82c0,4.32-3.5,7.82-7.82,7.82 c-4.32,0-7.82-3.5-7.82-7.82C93.74,98.01,97.24,94.51,101.56,94.51L101.56,94.51z M80.85,118.69v-8.21c0-1.16,0.94-2.09,2.09-2.09 s2.09,0.94,2.09,2.09v8.21h32.17c0.41,0,0.78-0.17,1.05-0.44l0,0c0.27-0.27,0.43-0.64,0.43-1.05V88.71c0-0.41-0.17-0.78-0.44-1.05 c-0.27-0.27-0.64-0.44-1.05-0.44H37.14c-1.16,0-2.09-0.94-2.09-2.09V5.68c0-0.41-0.17-0.78-0.44-1.05 c-0.27-0.27-0.64-0.44-1.05-0.44H5.68c-0.41,0-0.78,0.17-1.05,0.44C4.36,4.9,4.19,5.27,4.19,5.68v4.71h13.3 c1.16,0,2.09,0.94,2.09,2.09c0,1.16-0.94,2.09-2.09,2.09H4.19v8.46h7.65c1.16,0,2.09,0.94,2.09,2.09c0,1.16-0.94,2.09-2.09,2.09 H4.19v8.73h13.3c1.16,0,2.09,0.94,2.09,2.09c0,1.16-0.94,2.09-2.09,2.09H4.19v8.29h7.65c1.16,0,2.09,0.94,2.09,2.09 c0,1.16-0.94,2.09-2.09,2.09H4.19v8.6h13.3c1.16,0,2.09,0.94,2.09,2.09c0,1.16-0.94,2.09-2.09,2.09H4.19v8.42h7.65 c1.16,0,2.09,0.94,2.09,2.09c0,1.16-0.94,2.09-2.09,2.09H4.19v39.18c0,0.41,0.17,0.78,0.44,1.05c0.27,0.27,0.64,0.44,1.05,0.44h8.1 V104.5c0-1.16,0.94-2.09,2.09-2.09c1.16,0,2.09,0.94,2.09,2.09v14.19h9.24v-8.21c0-1.16,0.94-2.09,2.09-2.09 c1.16,0,2.09,0.94,2.09,2.09v8.21h9.29V104.5c0-1.16,0.94-2.09,2.09-2.09s2.09,0.94,2.09,2.09v14.19h9.46v-8.21 c0-1.16,0.94-2.09,2.09-2.09c1.16,0,2.09,0.94,2.09,2.09v8.21h9.07V104.5c0-1.16,0.94-2.09,2.09-2.09c1.16,0,2.09,0.94,2.09,2.09 v14.19H80.85L80.85,118.69z"/></g></svg>